<svg width="33" height="41" viewBox="0 0 33 41" fill="none" xmlns="http://www.w3.org/2000/svg">
<path fill-rule="evenodd" clip-rule="evenodd" d="M12.7496 20.44C11.7496 18.71 11.3896 16.77 11.6096 14.91L8.21963 16.5C5.53963 17.76 4.82963 21.61 6.30963 24.17C7.63963 26.47 10.8196 27.19 13.2296 26.3C13.4996 26.18 13.7596 26.04 14.0196 25.89L16.9596 24.19C15.2596 23.45 13.7596 22.18 12.7496 20.44Z" fill="url(#paint0_linear_12547_3)"/>
<path opacity="0.3" fill-rule="evenodd" clip-rule="evenodd" d="M7.99988 24.41C6.80988 22.36 7.51988 19.71 9.57988 18.52L11.6599 17.32C11.5399 16.52 11.5199 15.7 11.6199 14.9L8.22988 16.49C5.54988 17.75 4.83988 21.6 6.31988 24.16C7.62988 26.43 10.7499 27.17 13.1499 26.32C11.2399 26.99 9.04988 26.23 7.99988 24.41Z" fill="#0A1744"/>
<path opacity="0.15" fill-rule="evenodd" clip-rule="evenodd" d="M6.31988 24.17C7.34988 25.95 9.49988 26.79 11.5299 26.66C9.81988 26.7 8.12988 25.82 7.20988 24.22C5.87988 21.91 6.63988 18.96 8.89988 17.65L11.5599 16.11C11.5499 15.71 11.5699 15.3 11.6199 14.9L8.22988 16.49C5.54988 17.76 4.83988 21.61 6.31988 24.17Z" fill="#0A1744"/>
<path fill-rule="evenodd" clip-rule="evenodd" d="M5.01981 10.28C0.729813 12.76 -0.760187 18.3 1.71981 22.59C4.04981 26.62 9.07981 28.18 13.2398 26.3C10.8298 27.2 8.02981 26.25 6.70981 23.95C5.22981 21.39 6.11981 18.09 8.67981 16.61L17.8998 11.29C21.1198 9.43002 22.3898 6.36002 22.3898 3.57002V0.27002L5.01981 10.28Z" fill="url(#paint1_linear_12547_3)"/>
<path opacity="0.3" fill-rule="evenodd" clip-rule="evenodd" d="M17.8 11.12L9.54999 15.88L8.57999 16.44C5.92999 17.97 5.00999 21.39 6.53999 24.04C7.10999 25.02 8.19999 26.11 9.73999 26.52C10.62 26.76 11.65 26.78 12.81 26.43C12.84 26.42 12.87 26.41 12.9 26.4C10.57 27.09 7.96999 26.13 6.69999 23.94C5.21999 21.38 6.10999 18.08 8.66999 16.6L11.61 14.9L17.89 11.27C21.11 9.40996 22.38 6.33996 22.38 3.54996V3.45996V3.49996C22.38 6.70996 20.57 9.51996 17.8 11.12Z" fill="#B6FFFF"/>
<path opacity="0.2" fill-rule="evenodd" clip-rule="evenodd" d="M16.87 7.59L6.56001 13.54C3.10001 15.54 1.90001 20 3.90001 23.46C5.63001 26.45 9.21 27.75 12.38 26.75C12.67 26.65 12.95 26.54 13.24 26.41C13.21 26.42 13.18 26.43 13.15 26.44C13.07 26.47 12.99 26.5 12.9 26.52C12.87 26.53 12.84 26.54 12.81 26.55C11.65 26.89 10.62 26.87 9.74001 26.64C8.20001 26.22 7.11001 25.14 6.54001 24.16C5.01001 21.51 5.93001 18.09 8.58001 16.56L9.55 16L17.8 11.24C20.57 9.64 22.38 6.83 22.38 3.63V3.59V0.380005C21.16 4.62 19.49 6.08 16.87 7.59Z" fill="#CD001A"/>
<path fill-rule="evenodd" clip-rule="evenodd" d="M19.48 14.86C19.21 14.98 18.95 15.12 18.69 15.27L15.75 16.97C17.47 17.71 18.97 18.99 19.97 20.72C20.97 22.45 21.33 24.39 21.11 26.25L24.5 24.66C27.18 23.4 27.89 19.55 26.41 16.99C25.08 14.68 21.89 13.96 19.48 14.86Z" fill="url(#paint2_linear_12547_3)"/>
<path opacity="0.3" fill-rule="evenodd" clip-rule="evenodd" d="M19.5698 14.82C21.4798 14.16 23.6698 14.92 24.7198 16.74C25.9098 18.79 25.1998 21.44 23.1398 22.63L21.0598 23.83C21.1798 24.63 21.1998 25.45 21.0998 26.25L24.4898 24.66C27.1698 23.4 27.8798 19.55 26.3998 16.99C25.0898 14.71 21.9698 13.98 19.5698 14.82Z" fill="black"/>
<path opacity="0.15" fill-rule="evenodd" clip-rule="evenodd" d="M21.1896 14.5C22.8996 14.46 24.5896 15.34 25.5096 16.94C26.8396 19.25 26.0796 22.2 23.8196 23.51L21.1596 25.05C21.1696 25.45 21.1496 25.86 21.0996 26.26L24.4896 24.67C27.1696 23.41 27.8796 19.56 26.3996 17C25.3696 15.2 23.2296 14.36 21.1896 14.5Z" fill="black"/>
<path fill-rule="evenodd" clip-rule="evenodd" d="M19.4796 14.86C21.8896 13.96 24.6896 14.91 26.0096 17.21C27.4896 19.77 26.5996 23.07 24.0396 24.55L14.8196 29.88C11.5996 31.74 10.3296 34.81 10.3296 37.6V40.9L27.6996 30.87C31.9996 28.4 33.4796 22.86 30.9996 18.56C28.6696 14.53 23.6396 12.98 19.4796 14.86Z" fill="url(#paint3_linear_12547_3)"/>
<path opacity="0.6" fill-rule="evenodd" clip-rule="evenodd" d="M22.9798 14.63C22.0998 14.39 21.0698 14.37 19.9098 14.72C19.8798 14.73 19.8498 14.74 19.8198 14.75C22.1498 14.06 24.7498 15.02 26.0198 17.21C27.4998 19.77 26.6098 23.07 24.0498 24.55L21.1098 26.25L14.8298 29.88C11.6098 31.74 10.3398 34.81 10.3398 37.6V37.69V37.65C10.3398 34.45 12.1498 31.64 14.9198 30.04L23.1698 25.28L24.1398 24.72C26.7898 23.19 27.7098 19.77 26.1798 17.12C25.6198 16.13 24.5298 15.04 22.9798 14.63Z" fill="white"/>
<path opacity="0.2" fill-rule="evenodd" clip-rule="evenodd" d="M20.3398 14.52C20.0498 14.62 19.7598 14.73 19.4798 14.86C19.5098 14.85 19.5398 14.84 19.5698 14.83C19.6498 14.8 19.7298 14.77 19.8198 14.75C19.8498 14.74 19.8798 14.73 19.9098 14.72C21.0698 14.38 22.0998 14.4 22.9798 14.63C24.5198 15.05 25.6098 16.13 26.1798 17.11C27.7098 19.76 26.7898 23.18 24.1398 24.71L23.1698 25.27L14.9198 30.03C12.1498 31.63 10.3398 34.44 10.3398 37.64V37.68V40.89C11.5598 36.65 13.2298 35.2 15.8498 33.68L26.1598 27.73C29.6198 25.73 30.8198 21.27 28.8198 17.81C27.0898 14.82 23.5198 13.52 20.3398 14.52Z" fill="white"/>
<defs>
<linearGradient id="paint0_linear_12547_3" x1="2.27043" y1="15.7339" x2="17.5794" y2="25.1685" gradientUnits="userSpaceOnUse">
<stop offset="1.11884e-07" stop-color="#A50034"/>
<stop offset="1" stop-color="#CD001A"/>
</linearGradient>
<linearGradient id="paint1_linear_12547_3" x1="-3.45529" y1="29.4002" x2="28.943" y2="0.472919" gradientUnits="userSpaceOnUse">
<stop stop-color="#A50034"/>
<stop offset="1" stop-color="#CD001A"/>
</linearGradient>
<linearGradient id="paint2_linear_12547_3" x1="27.5589" y1="22.4677" x2="10.2023" y2="15.97" gradientUnits="userSpaceOnUse">
<stop stop-color="#6C7A89"/>
<stop offset="1" stop-color="white"/>
</linearGradient>
<linearGradient id="paint3_linear_12547_3" x1="31.7133" y1="13.6418" x2="4.56639" y2="45.8622" gradientUnits="userSpaceOnUse">
<stop stop-color="#6C7A89"/>
<stop offset="1" stop-color="white"/>
</linearGradient>
</defs>
</svg>